<svg width="50" height="50" viewBox="0 0 50 50" fill="none" xmlns="http://www.w3.org/2000/svg">
<path d="M17.3594 39.3086C15.7071 38.0078 13.9454 36.7617 12.7383 35.0078C10.2032 31.9141 8.25004 28.3281 6.91801 24.5625C6.10942 22.1133 5.83598 19.4883 4.79301 17.1328C3.70707 15.4219 4.98051 13.5547 6.85161 13.0117C7.68364 12.8516 9.15239 12.0625 7.38286 12.6289C5.79692 13.793 5.64458 11.5703 7.26957 11.4297C8.37895 11.2813 8.78911 10.375 8.4102 9.5547C7.21879 8.77735 11.3008 7.92189 9.24614 6.76173C7.10551 4.45314 12.2383 4.00782 10.9727 6.63282C10.6719 8.64845 14.5586 6.26173 13.6563 8.58985C14.5743 9.70704 17.0938 8.84376 17.0274 10.4141C18.3633 10.5078 18.8243 11.6289 20.0743 11.7149C21.375 12.3008 23.7305 12.7656 24.1719 14.2305C22.8829 15.25 19.8946 12.1211 19.7539 14.9492C20.1446 19.125 20.043 23.4258 21.5704 27.4024C22.293 29.8086 24.043 31.7031 25.625 33.5781C27.1407 35.4141 29.1875 36.707 31.2813 37.7969C33.1133 38.6602 35.0899 39.2344 37.0899 39.5938C37.8985 38.9727 39.3321 36.6719 40.5938 37.6406C40.6563 38.7344 38.086 39.9219 40.4727 39.8047C41.875 39.3828 42.8477 40.8867 44.0039 39.5274C45.0664 40.7891 48.4258 38.7227 47.668 41.2969C46.6446 41.957 45.1524 41.5586 44.125 42.4688C42.4336 41.625 41.0899 43.2227 39.2188 43.0234C37.1407 43.3945 35.0274 43.5469 32.918 43.5469C29.461 43.2734 25.9297 43.1602 22.6446 41.957C20.793 41.418 18.9844 40.3633 17.3594 39.3086ZM20.2774 40.5742C22.086 41.3555 23.8555 42.1797 25.836 42.4297C28.9805 42.8672 32.2305 43.5391 35.3868 42.9258C33.9571 42.2813 32.4805 43.1758 31.0586 42.4649C29.3516 42.832 27.5196 42.3711 25.7852 42.1445C23.8125 41.2656 21.6836 40.6602 19.836 39.5195C17.5274 38.6758 21.0313 40.6016 21.6524 40.7578C23.0938 41.5781 20.0664 40.3359 19.6368 39.9961C18.4297 39.3164 18.2735 39.4609 19.5157 40.1484C19.7657 40.293 20.0157 40.4492 20.2774 40.5742ZM16.836 38.1406C18.5899 38.7891 16.8282 36.9063 16.0274 37.0156C15.6719 36.3984 14.668 36.0078 15.375 35.6758C14.1016 36.1172 14.0391 33.9961 13.4414 34.2969C12.0938 33.8711 12.918 32.3633 11.3125 31.4375C11.168 30.4609 9.71879 29.6172 9.25786 28.1445C9.05473 27.3906 7.62114 25.2305 8.50004 27.2422C9.25004 29.1797 10.5665 30.8399 11.6641 32.4961C12.5157 34.0742 13.5235 35.7227 15.0704 36.707C15.5938 37.2149 16.0977 37.9844 16.836 38.1406ZM11.7852 32.5977C12.1055 33.168 11.8477 32.332 11.7852 32.5977ZM18.9336 38.918C19.3243 38.7461 18.375 38.6992 18.9336 38.918ZM19.8868 39.2656C19.7891 38.7852 19.4532 39.5352 19.8868 39.2656ZM21.0782 39.7617C21.6446 39.2227 20.2032 39.4219 21.0782 39.7617ZM23.1172 40.8984C23.4649 40.3906 22.0157 40.707 23.1172 40.8984ZM19.1993 38.168C20.0782 37.5977 18.0625 38.1602 19.1993 38.168ZM20.0938 38.6133C20.0664 38.3125 19.7735 38.7461 20.0938 38.6133ZM24.5586 41.3984C25.2774 41.8516 28.75 42.3906 26.5743 41.5859C26.211 41.6641 22.5391 40.5469 24.5586 41.3984ZM17.4688 35.8789C17.3985 35.5781 16.3555 35.5469 17.4688 35.8789ZM19.5469 37.0899C20.0899 36.7149 18.4258 36.8008 19.5469 37.0899ZM21.2969 38.1641C22.0704 37.8711 20.0352 37.8711 21.2969 38.1641ZM16.6211 34.957C17.4649 35.6016 20.0196 35.0391 17.9102 34.5703C16.9532 34.0586 14.7891 33.7109 16.2618 34.8789L16.6211 34.957ZM22.4805 38.5352C22.8321 37.9375 21.0079 38.1914 22.4805 38.5352ZM20.6993 37.1172C22.7579 37.6992 18.9688 35.8125 20.1914 36.9024L20.4649 37.0274L20.6993 37.1172ZM24.2696 39.1797C26.2188 39.1992 22.5079 38.9141 24.2696 39.1797ZM15.8711 33.8281C15.7969 33.4649 15.3907 33.8594 15.8711 33.8281ZM27.5664 41.0313C27.6211 40.375 26.9336 41.5195 27.5664 41.0313ZM19.1993 35.8672C19.0821 35.5234 18.5899 35.8516 19.1993 35.8672ZM16.0586 33.6016C17.1758 33.5352 14.5235 33.1094 16.0586 33.6016ZM12.3321 31.1953C12.1914 30.6563 11.1133 30.2305 12.3321 31.1953ZM22.1094 37.3984C22.0118 37.4492 21.9063 37.1641 22.1094 37.3984ZM28.1954 41.1328C28.1758 40.7774 27.8633 41.2695 28.1954 41.1328ZM21.5704 36.8438C21.6797 36.3828 20.6172 36.7031 21.5704 36.8438ZM17.0391 33.9688C17.8711 33.8789 15.7032 33.4063 17.0391 33.9688ZM24.7071 38.7344C26.0039 38.2188 23.4414 38.4844 24.7071 38.7344ZM20.7188 36.0274C22.2149 36.2188 18.9375 35.0078 20.3907 35.918L20.7188 36.0274ZM25.918 39.2266C27.3164 38.3906 26.8555 41.1836 28.2891 39.4609C29.7032 38.4297 27.0664 40.7383 28.8086 39.6445C30.0704 38.8008 31.9297 40.043 33.1055 40.4492C33.9493 40.4063 34.7735 41.1797 35.6407 40.7109C37.3086 40.2617 32.375 40.043 33.668 39.2461C32.1407 39.6914 31.0118 38.7149 30.2618 37.7383C28.5469 37.3438 26.5664 36.4688 25.711 34.9492C25.3633 34.3789 26.2149 35.0313 25.4102 34.0977C24.379 33.1797 23.8633 32.1367 23.1719 31.0195C22.3438 30.5781 22.2461 29.2774 22.1641 30.9766C22.1719 29.9063 21.1641 29.1836 20.918 29.4844C20.9141 28.4531 21.9961 28.9688 21.2383 28.207C21.0743 27.1367 20.5391 26.0234 20.3789 24.8164C20.1289 24.2344 20.3438 22.9883 19.5235 24.3047C19.2266 25.6992 19.4258 22.5938 19.8907 23.6172C20.5 22.5742 19.6719 22.6953 19.6368 22.8399C20.0352 21.957 19.8868 20.707 19.5313 21.1836C19.7422 20.25 19.8672 17.7461 19.2149 18.1914C19.6094 17.2149 19.9649 13.7227 18.25 15.0547C17.5547 15.0664 16.3555 15.3047 15.7852 15.5899C17.5664 16.5703 15.6055 15.9453 14.8789 15.7891C14.7852 16.6992 14.0664 16.3047 13.168 16.3125C14.6016 16.4883 12.4688 17.7774 11.6485 17.2774C10.5782 17.7891 12.5704 19.0625 11.668 19.457C11.7774 20.0508 10.0313 19.2422 10.168 20.6133C9.13286 20.1758 10.0274 22.2383 10.543 21.543C12.3047 22.0195 11.7852 23.1094 11.8282 24.1406C11.5391 24.7422 10.4102 22.7266 11.5782 22.8203C10.6563 21.3242 10.5586 22.2813 9.79692 22.9727C9.62114 23.0234 11.7461 23.9609 10.4102 24.4258C11.586 24.6094 11.6211 25.6367 11.8594 26.2852C12.5665 27.0195 12.4219 25.4727 13.2657 26.3555C12.7305 25.5664 10.4336 24.1367 12.2813 24.5938C12.2696 23.8008 11.9454 23.1602 12.5157 23.1758C13.0782 22.1602 11.9258 25.6836 13.1915 24.3906C13.543 24.2383 13.6289 23.375 14.2579 24.4727C15.1719 25.3711 14.5899 26.0234 13.2969 25.1992C13.5274 25.9844 15.0235 26.2617 14.7422 27.4883C15.0391 28.5664 15.4571 28.168 15.8204 28.1055C16.1055 29.1524 16.2657 28.3828 16.2813 27.8828C17.586 28.1641 17.2813 28.9336 17.6875 29.4727C18.586 29.8789 16.4024 26.7227 17.9454 28.5234C19.5704 29.9883 18.5547 30.6016 17.0977 30.3672C18.0196 30.293 18.3164 31.6133 19.4688 31.5664C20.5196 32.0664 21.2344 33.9883 19.4219 33.1875C18.793 32.6211 16.5664 31.9219 18.3868 33C20.0664 33.7774 21.3985 34.2422 23.0196 35.2188C24.1758 36.0469 24.6797 36.9922 25.1172 37.1797C24.1446 37.6445 22.1836 36.8086 23.6407 36.5508C22.7305 36.3867 21.711 35.9258 22.5821 37.0586C23.3204 37.6758 25.2032 37.6133 25.543 37.6797C25.2579 38.3086 24.7657 38.3594 25.5547 38.4063C24.6758 38.8828 25.836 38.957 25.918 39.2266ZM24.1211 34.1484C23.586 33.5899 23.4493 32.543 24.0274 33.4531C24.3204 33.5703 24.9766 35.1641 24.1211 34.1484ZM29.9766 37.8672C30.3086 37.8438 29.9844 38.1211 29.9766 37.8672ZM23.2774 32.7774C23.4688 33.4297 23.2539 31.9297 23.2774 32.7774ZM22.6954 31.9922C23.543 32.3633 22.0196 30.6953 22.6954 31.9922ZM15.6407 27.125C16.0352 27.0195 15.836 27.8008 15.6407 27.125ZM21.2539 30.168C21.5391 30.9336 21.4961 29.2578 21.2539 30.168ZM17.2891 27.4102C17.875 27.8828 17.0118 26.9063 17.2891 27.4102ZM20.6914 28.5C20.0547 27.0742 21.1446 27.7188 20.8321 28.7344L20.6914 28.5ZM14.8243 24.5899C14.5391 24.1211 14.0704 22.7461 14.2188 22.3281C14.3555 23.0117 15.6719 25.2695 14.8633 23.2617C13.9727 21.582 15.9297 23.8086 16.1329 24.2266C16.2266 24.6445 15.5821 24.1133 16.0196 25.0899C15.2227 23.9766 15.5508 25.707 14.8243 24.5899ZM13.0118 23.3399C13.4258 24.0859 13.086 22.25 13.0118 23.3399ZM13.8243 23.6211C14.4844 24.7656 14.2149 22.7969 13.8243 23.6211ZM11.8633 22.1016C11.1875 21.4297 10.6993 20.8125 11.8946 21.6836C12.3555 21.7031 10.8711 20.2774 12.0039 21.2305C13.1993 21.4492 12.5938 23.1875 11.8633 22.1016ZM12.8946 22.0742C13.2852 21.6875 13.1016 22.457 12.8946 22.0742ZM13.5274 22.2774C14.25 22.7461 12.9336 21.1641 13.5274 22.2774ZM12.2696 21.0742C10.3086 19.3281 14.7344 21.9883 12.5899 21.3984L12.2696 21.0742ZM17.8907 24.3399C17.0391 23.832 17.6641 20.7539 17.9532 22.8594C18.7774 22.5938 17.9063 23.9453 18.5235 23.9336C18.4297 24.7852 18.1524 25.0938 17.8907 24.3399ZM19.9727 25.5703C20.1485 26.2031 20.0547 24.6406 19.9727 25.5703ZM19.6094 25.2109C19.7032 24.8164 19.6211 25.6797 19.6094 25.2109ZM12.6524 20.5C11.3907 18.7617 16.3164 22.2617 13.461 20.9414C13.1602 20.8594 12.8008 20.832 12.6524 20.5ZM16.6602 22.6211C16.9258 22.8633 16.5391 21.1563 16.6602 22.6211ZM19.6993 24.5742C19.9336 23.7383 19.7188 25.125 19.6993 24.5742ZM12.8477 19.8359C13.5977 19.6758 15.9532 21.1524 13.7891 20.2578C13.5469 19.9883 13.0352 20.1094 12.8477 19.8359ZM19.2813 23.043C19.3594 21.543 19.7305 22.1484 19.2852 23.2578L19.2813 23.043ZM13.4024 19.3125C13.7071 18.8633 12.5899 17.2891 13.5625 18.7461C13.9844 19.0781 14.7774 19.3047 14.0743 19.4453C15.1836 20.4219 13.8086 19.7109 13.4024 19.3125ZM18.9649 22.5742C19.1758 20.8672 19.1485 23.5742 18.9649 22.5742ZM12.7657 17.7383C13 17.6367 12.8907 18.0469 12.7657 17.7383ZM14.2149 18.6016C14.9063 19.4727 14.5899 17.8164 14.2149 18.6016ZM18.3047 20.875C18.3829 21.3125 18.3047 20.5742 18.3047 20.875ZM18.0704 20.3516C18.5977 21.0938 17.5039 18.9492 18.0704 20.3516ZM17.7227 19.4336C18.0469 20.1602 17.625 18.8555 17.7227 19.4336ZM18.2891 18.5117C17.8985 17.8242 18.7813 15.4844 18.8789 16.9375C18.4688 18.0664 18.7618 18.6992 19.0469 17.1836C19.5782 15.9883 18.9336 19.5352 18.2891 18.5117ZM18.8711 15.0313C19.043 14.8242 18.9102 15.2852 18.8711 15.0313ZM17.8985 34.2188C17.9258 34.3477 17.668 34.0156 17.8985 34.2188ZM19.9024 35.2344C21.0196 35.5234 21.0118 35.0625 20.0039 34.9258C19.461 34.4219 17.75 33.8867 19.2813 34.8633C19.3868 35.1172 19.7071 35.1094 19.9024 35.2344ZM15.9415 32.6016C16.5547 33.0625 18.2579 33.8984 16.8164 32.7774C17.3008 32.2149 15.8868 31.9141 16.3555 31.5352C15.1602 30.8047 15.4141 30.8711 16.25 30.8945C14.8164 30.2539 16.4571 30.3008 16.379 29.9727C15.8243 29.8633 13.6329 28.9961 14.9219 30.043C13.6094 29.375 14.6094 30.293 14.211 30.1953C12.8672 29.8281 15.4063 31.2188 14 30.8711C14.7696 31.4805 16.0704 32.4336 14.3243 31.5156C14.1016 31.8477 15.5782 32.3516 15.9415 32.6016ZM18.0391 33.8086C20.5899 34.6289 16.7891 32.8008 18.0391 33.8086ZM28.7813 40.3125C28.8125 39.8047 28.4297 40.7461 28.7813 40.3125ZM29.8829 40.7774C30.4727 40.207 29.9063 41.6875 30.8594 40.6367C30.8711 39.8867 30.8321 39.4414 29.7657 40.3555C29.4727 40.5195 29.3399 41.2109 29.8829 40.7774ZM12.3633 29.7734C12.1797 29.0625 11.0938 29.0664 12.3633 29.7734ZM13.5391 30.5469C13.1016 29.8203 11.9766 29.8906 13.5391 30.5469ZM20.2461 34.5899C20.9024 35.1719 23.2539 35.0156 21.0391 34.6602C20.7149 34.1758 18.961 34.293 20.2461 34.5899ZM29.4649 40.2813C30.4688 39.4375 28.4883 40.6602 29.4649 40.2813ZM31.5586 41.7227C31.5664 41.4531 31.125 41.8399 31.5586 41.7227ZM31.5625 41.3438C32.6797 40.1602 30.4805 41.4141 31.5625 41.3438ZM9.46098 27.3477C8.51176 25.9922 8.87114 25.3828 7.95317 24.2734C7.77739 23.4258 6.37895 21.5039 7.23051 23.5391C8.00786 24.7305 8.23832 26.5742 9.46098 27.3477ZM31.211 40.9688C33.2657 39.6406 30.3711 40.3906 31.211 40.9688ZM32.7774 41.582C33.8086 40.6992 32.129 41.3984 32.7774 41.582ZM12.0118 28.2734C12.3086 27.8359 11.2539 28.2188 12.0118 28.2734ZM32.4532 41.1602C33.4493 40.5195 32.2227 40.6172 32.2735 41.2188L32.4532 41.1602ZM18.9454 32.6484C18.9102 32.2149 18.418 32.6836 18.9454 32.6484ZM19.7813 33.1289C19.5118 32.5899 19.3711 33.2109 19.7813 33.1289ZM34.0508 41.5938C35.3282 40.6719 33.2774 41.418 33.7852 41.7695L34.0508 41.5938ZM33.5586 41.3594C34.6016 40.4883 32.4649 41.7461 33.5586 41.3594ZM36.0547 43.0195C36.754 42.5547 35.2071 42.8711 36.0547 43.0195ZM12.6524 27.957C13.586 28.168 16.3868 30.2578 14.7344 28.1016C13.8868 27.8516 14.3946 25.7813 13.5313 26.1484C14.1094 27.1172 14.0079 27.5274 12.7891 26.918C11.2618 26.1719 11.9297 27.2852 12.2305 27.5938C11.8243 27.6914 12.7735 27.9492 12.6524 27.957ZM8.39457 24.5938C8.56254 23.9024 6.85161 20.7852 7.58598 23.0313C7.85161 23.5039 7.82426 24.3945 8.39457 24.5938ZM16.211 29.4141C16.1875 29.3555 15.7305 29.0117 16.211 29.4141ZM17.3946 29.6914C17.3946 28.957 16.086 29.3906 17.3946 29.6914ZM27.668 36.1641C27.4727 35.6641 26.8946 36.1563 27.668 36.1641ZM28.1602 36.5274C28.0899 36.2461 27.8789 36.582 28.1602 36.5274ZM32.2344 39.0899C32.625 38.8008 31.7461 39.0547 32.2344 39.0899ZM10.5196 25.1367C11.6407 24.7031 9.32036 24.8281 10.5196 25.1367ZM26.7657 35.3711C26.75 34.6445 26.0508 35.5508 26.7657 35.3711ZM10.0782 24.1055C10.7969 23.8633 9.4102 23.9453 10.0782 24.1055ZM12.1641 25.1172C12.1524 24.8789 11.9454 25.207 12.1641 25.1172ZM37.6407 40.7383C38.5664 40.5508 40.6758 41.211 41.0157 40.4922C39.8907 40.4649 37.1289 39.6992 37 40.6719L37.2461 40.7109L37.6407 40.7383ZM12.8282 25.2852C12.8477 24.5508 12.2579 25.2578 12.8282 25.2852ZM7.33989 21.4766C7.08989 20.0781 6.39067 21.2656 7.33989 21.4766ZM8.64848 21.8047C8.66411 21.3555 7.44926 21.4024 8.64848 21.8047ZM9.39457 22.1719C9.22661 22.3945 9.17973 22 9.39457 22.1719ZM14.1055 25.1914C14.3282 24.9883 13.5782 25.043 14.1055 25.1914ZM8.89848 21.3438C8.76957 20.2852 7.38286 21.1875 8.89848 21.3438ZM6.21489 19.6016C6.17582 19.1133 5.95317 19.7852 6.21489 19.6016ZM6.61332 19.3008C6.54692 18.7227 6.26957 19.375 6.61332 19.3008ZM8.82036 20.6172C9.75395 20.25 7.12114 19.8594 8.62895 20.5469L8.82036 20.6172ZM38.3477 38.8555C38.9454 38.3086 37.5899 38.6875 38.3477 38.8555ZM41.9141 40.707C42.1524 40 41.3125 40.7969 41.9141 40.707ZM9.04301 19.4609C9.14457 18.7774 8.30473 19.5977 9.04301 19.4609ZM5.90629 17.3594C5.73832 16.3945 5.76176 14.6953 7.37504 15.2695C5.2227 15.6992 8.86723 17.9453 8.40629 16.1719C9.31254 16.2149 10.1758 15.6367 9.70317 16.5156C11.4883 16.3203 12.7227 14.7734 14.4454 14.9883C15.7891 14.8086 17.2539 14.6758 18.6993 14.1367C19.8868 14.0508 21.0313 12.7695 20.3829 12.0117C18.7618 11.875 17.0625 12.0781 15.2735 12.4336C13.2891 12.8477 11.4844 13.6289 9.48051 13.9688C7.52739 14.2305 9.87114 14.6914 9.31254 14.793C8.29301 15.1445 10.5274 15.3867 9.17973 15.7578C8.3477 15.5977 7.48051 15.3125 7.83598 14.4375C5.96489 14.6797 4.32036 15.457 5.80082 17.3594H5.90629ZM10.4141 15.0625C10.8516 13.4453 12.7618 16.3906 11.1329 15.2774C10.9375 15.1289 10.6172 15.0117 10.4141 15.0625ZM10.5 14.2774C11.1329 13.8086 10.836 14.543 10.5 14.2774ZM11.3047 14.293C11.3633 13.5508 13.1446 14.6875 11.5977 14.5586L11.3047 14.293ZM12.4024 13.8477C12.8047 13.3789 12.5196 14.2656 12.4024 13.8477ZM12.6836 13.6602C13.3516 12.8555 16.4688 13.1484 14.1875 13.582C13.5782 13.1211 13.1094 13.8555 12.6836 13.6602ZM16.7539 13.0352C18.7774 13.8125 16.6524 10.8399 16.7539 13.0352ZM17.9102 13.0274C18.3321 11.9219 19.5508 12.582 18.1055 12.8047C18.1368 12.9219 18.0625 13.375 17.9102 13.0274ZM8.58989 18.8945C9.85161 18.1211 7.25004 18.2227 8.58989 18.8945ZM9.52348 19.1524C9.96489 18.6836 8.56254 18.9609 9.52348 19.1524ZM6.77348 17.2031C7.49614 16.6484 5.92192 16.9922 6.77348 17.2031ZM44.0196 40.5039C44.0391 39.8594 43.4688 40.793 44.0196 40.5039ZM40.2344 37.9219C40.3438 37.1797 39.75 37.9844 40.2344 37.9219ZM45.0625 40.7539C46.0704 40.7578 48.1172 40.4414 45.9219 40.4414C45.5782 40.4922 43.918 40.4844 45.0625 40.7539ZM10.3438 18.6992C11.1602 18.6445 11.6211 17.8008 10.1836 17.8477C7.96098 17.6172 12.1446 18.6094 9.89848 18.3242C9.5977 18.5234 10.3243 18.7539 10.3438 18.6992ZM11.0625 19.0625C10.9766 18.5391 10.8086 19.3399 11.0625 19.0625ZM11.9141 16.7891C12.2657 16.3516 11.4219 16.6719 11.9141 16.7891ZM9.19926 12.2578C10.6563 11.7617 12.6446 11.207 13.3321 12.5C12.6329 11.6602 13.0508 10.8281 13.711 12.0625C14.6446 13.3086 15.1133 11.4961 14.504 11.0781C15.1954 11.9375 15.9844 12.3438 14.9688 11.1328C16.0743 9.8047 12.7579 11.3086 12.0039 11.293C11.6446 11.4531 8.26176 12.1524 9.19926 12.2578ZM10.0547 10.625C10.8868 10 12.9258 11 11.6172 10.0039C11.4883 9.88673 8.74614 10.7578 10.0547 10.625ZM13.0821 10.75C14.0547 10.7734 12.6641 9.44532 13.8204 10.0469C13.629 9.42579 12.4727 9.3086 11.9063 9.06251C11.586 9.62892 12.5547 10.7578 13.0821 10.75ZM10.586 8.00001C10.9219 7.54689 9.99614 8.23439 10.586 8.00001ZM11.8204 8.29689C13.3868 8.08985 11.4219 7.62501 11.504 8.28126L11.8204 8.29689ZM9.51176 6.4922C8.4102 5.05079 11.586 6.73439 10.4649 5.22657C9.52348 4.47657 8.61723 6.07032 9.51176 6.4922ZM23.6563 14.1094C24.1602 13.2149 21.5704 12.9024 23.3164 13.793C23.4805 13.8477 23.4414 14.1719 23.6563 14.1094Z" fill="#010101"/>
</svg>
